<svg xmlns:xlink="http://www.w3.org/1999/xlink" xmlns="http://www.w3.org/2000/svg" width="24" height="24" viewBox="0 0 24 24" fill="none"><path d="M7.99883 2.39999C4.91163 2.39999 2.40039 4.91356 2.40039 8.00156V16.0016C2.40039 19.0888 4.91395 21.6 8.00195 21.6H16.002C19.0892 21.6 21.6004 19.0864 21.6004 15.9984V7.99843C21.6004 4.91123 19.0868 2.39999 15.9988 2.39999H7.99883ZM17.6004 5.59999C18.042 5.59999 18.4004 5.95839 18.4004 6.39999C18.4004 6.84159 18.042 7.19999 17.6004 7.19999C17.1588 7.19999 16.8004 6.84159 16.8004 6.39999C16.8004 5.95839 17.1588 5.59999 17.6004 5.59999ZM12.0004 7.19999C14.6476 7.19999 16.8004 9.35279 16.8004 12C16.8004 14.6472 14.6476 16.8 12.0004 16.8C9.35319 16.8 7.20039 14.6472 7.20039 12C7.20039 9.35279 9.35319 7.19999 12.0004 7.19999ZM12.0004 8.79999C11.1517 8.79999 10.3378 9.13714 9.73765 9.73725C9.13753 10.3374 8.80039 11.1513 8.80039 12C8.80039 12.8487 9.13753 13.6626 9.73765 14.2627C10.3378 14.8629 11.1517 15.2 12.0004 15.2C12.8491 15.2 13.663 14.8629 14.2631 14.2627C14.8632 13.6626 15.2004 12.8487 15.2004 12C15.2004 11.1513 14.8632 10.3374 14.2631 9.73725C13.663 9.13714 12.8491 8.79999 12.0004 8.79999Z" fill="#b4b3b3"></path></svg>